# xmcd CD database file
#
# Track frame offsets:
#	150
#	9727
#	22380
#	33076
#	46467
#	57609
#	67950
#	75833
#	87574
#	102287
#
# Disc length: 1524 seconds
#
# Revision: 0
# Processed by: cddbd v1.5.1PL2 Copyright (c) Steve Scherf et al.
# Submitted via: CDex 1.70beta2
#
DISCID=7d05f20a
DTITLE=Various Artist - That's Country - 60's Classics
DYEAR=2004
DGENRE=Country
TTITLE0=Leroy Van Dyke - Walk On By
TTITLE1=Bill Anderson - Still
TTITLE2=Kitty Wells - Heartbreak U.S.A.
TTITLE3=Jimmy Dean - Big Bad John
TTITLE4=Porter Wagoner - Misery Loves Company
TTITLE5=George Hamilton IV - Abilene
TTITLE6=Roger Miller - Dang Me
TTITLE7=Jack Greene - There Goes My Everything
TTITLE8=Jeannie C. Riley - Harper Valley P.T.A.
TTITLE9=Merle Haggard - Okie From Muskogee
EXTD=YEAR: 2004
EXTT0=
EXTT1=
EXTT2=
EXTT3=
EXTT4=
EXTT5=
EXTT6=
EXTT7=
EXTT8=
EXTT9=
PLAYORDER=
